<?xml version="1.0" standalone="no"?>
<!DOCTYPE svg PUBLIC "-//W3C//DTD SVG 20010904//EN"
 "http://www.w3.org/TR/2001/REC-SVG-20010904/DTD/svg10.dtd">
<svg version="1.0" xmlns="http://www.w3.org/2000/svg"
 width="512.000000pt" height="512.000000pt" viewBox="0 0 512.000000 512.000000"
 preserveAspectRatio="xMidYMid meet">
<metadata>
Created by potrace 1.14, written by Peter Selinger 2001-2017
</metadata>
<g transform="translate(0.000000,512.000000) scale(0.100000,-0.100000)"
fill="#000000" stroke="none">
<path d="M2380 5113 c-88 -9 -305 -58 -400 -90 -133 -44 -287 -119 -404 -196
-267 -175 -486 -420 -614 -687 -47 -97 -118 -303 -127 -370 -4 -24 -8 -47 -10
-50 -4 -6 -12 -58 -21 -135 -13 -113 -6 -373 11 -460 3 -11 7 -38 10 -60 3
-22 15 -76 26 -120 11 -44 22 -87 24 -96 7 -34 59 -179 93 -259 89 -211 224
-431 384 -625 44 -53 278 -361 278 -365 0 -3 -46 -20 -103 -38 -128 -40 -339
-143 -432 -210 -161 -115 -265 -251 -295 -386 -11 -52 -14 -153 -5 -197 47
-237 299 -456 685 -596 206 -75 518 -140 770 -161 179 -14 650 -6 745 13 11 2
39 7 63 9 72 9 224 36 282 51 30 8 67 16 82 19 15 2 87 25 161 50 410 138 670
346 733 585 72 273 -101 536 -473 720 -101 50 -271 117 -323 128 -17 3 -30 8
-30 12 0 3 61 85 136 181 304 392 341 446 456 660 20 38 48 100 109 245 16 39
48 141 69 225 75 296 83 564 25 865 -32 164 -122 377 -230 545 -86 134 -244
307 -375 411 -229 183 -569 331 -835 365 -22 3 -47 8 -55 11 -17 6 -358 11
-410 6z m450 -257 c245 -44 474 -143 667 -288 61 -46 64 -49 138 -118 249
-234 401 -546 440 -900 12 -103 6 -319 -10 -400 -2 -14 -7 -41 -10 -60 -37
-229 -159 -524 -308 -746 -55 -82 -431 -578 -615 -811 -10 -12 -137 -177 -282
-367 -224 -292 -269 -345 -290 -345 -21 0 -48 30 -157 172 -192 252 -652 849
-671 872 -9 11 -57 73 -107 138 -49 65 -117 153 -150 196 -211 276 -366 611
-409 881 -3 19 -7 44 -10 55 -16 82 -23 307 -11 414 19 178 65 339 141 494
191 390 565 685 1007 792 56 14 131 28 167 31 36 4 67 8 69 11 11 9 324 -7
401 -21z"/>
<path d="M2538 4075 c-2 -2 -30 -5 -63 -8 -284 -27 -534 -193 -671 -447 -112
-207 -132 -469 -53 -691 118 -336 439 -567 793 -572 101 -1 147 5 254 34 271
74 500 299 581 569 31 105 33 120 37 230 4 138 -20 262 -74 380 -20 45 -91
160 -111 182 -93 97 -125 126 -178 164 -111 80 -270 140 -398 151 -27 2 -64 5
-82 7 -18 2 -33 2 -35 1z"/>
</g>
</svg>
